<?xml version="1.0" encoding="utf-8"?>
<!-- Generator: Adobe Illustrator 16.0.0, SVG Export Plug-In . SVG Version: 6.00 Build 0)  -->
<!DOCTYPE svg PUBLIC "-//W3C//DTD SVG 1.1//EN" "http://www.w3.org/Graphics/SVG/1.1/DTD/svg11.dtd">
<svg version="1.1" id="Layer_1" xmlns="http://www.w3.org/2000/svg" xmlns:xlink="http://www.w3.org/1999/xlink" x="0px" y="0px"
	 width="420px" height="420px" viewBox="0 0 420 420" enable-background="new 0 0 420 420" xml:space="preserve">
<polygon fill="#FF33FF" points="48,48 48,84.732 58.645,96 108,96 108,48 "/>
<rect x="65" y="33" fill="#FF33FF" width="7" height="11"/>
<rect x="85" y="33" fill="#FF33FF" width="23" height="11"/>
<g>
	<path fill="#FF33FF" d="M96.085,110.611c-0.855-3.495-1.375-7.118-1.511-10.837l-10.98,0.058c0.139,4.617,0.775,9.11,1.837,13.441
		L96.085,110.611z"/>
	<path fill="#FF33FF" d="M97.191,114.458l-10.681,2.669c8.335,26.721,33.461,46.199,62.49,46.199v-11.022
		C125.08,152.304,104.328,136.387,97.191,114.458z"/>
</g>
<polygon fill="#FF33FF" points="364,257 364,220.471 353.919,209 304,209 304,257 "/>
<rect x="340" y="261" fill="#FF33FF" width="7" height="11"/>
<rect x="304" y="261" fill="#FF33FF" width="23" height="11"/>
<g>
	<path fill="#FF33FF" d="M304.208,156.674c-11.321-9.24-25.709-14.798-41.208-14.798v11.023c12.712,0,24.536,4.495,33.898,11.997
		L304.208,156.674z"/>
	<path fill="#FF33FF" d="M316.222,169.455l-8.275,7.354c5.641,8.22,9.113,18.036,9.499,28.62l10.98-0.058
		C328.025,192.015,323.539,179.656,316.222,169.455z"/>
	<path fill="#FF33FF" d="M313.78,166.274c-2.837-3.489-6.017-6.686-9.492-9.532l2.912,2.587l-7.28,8.189
		c2.025,1.877,3.913,3.9,5.64,6.061L313.78,166.274z"/>
</g>
<g>
	
		<rect x="120.553" y="325.125" transform="matrix(-0.9042 -0.4271 0.4271 -0.9042 108.6822 685.0483)" fill="#FF33FF" width="21.238" height="10.419"/>
	<polygon fill="#FF33FF" points="134.252,323.816 142.045,327.497 168.276,271.968 161.855,268.935 154.725,284.029 145.56,279.699 
		126.458,320.135 	"/>
</g>
<rect x="149" y="138" fill="#FF33FF" width="8" height="36"/>
<rect x="255" y="138" fill="#FF33FF" width="8" height="36"/>
<polygon fill="#FF33FF" points="198,207.838 198,149.057 161,139.088 161,207.652 182.828,216.884 "/>
<g>
	<polygon fill="#FF33FF" points="214,149.057 214,207.838 229.177,216.869 251,207.652 251,139.102 	"/>
	<polygon fill="#FF33FF" points="210,210.103 210,145.997 246.633,136.106 239.046,133 173.013,133 165.373,136.102 202,145.997 
		202,210.103 185,220.185 185,250 227,250 227,220.15 	"/>
</g>
<g>
	<circle fill="#FF33FF" cx="206.023" cy="114.65" r="4.818"/>
	<g>
		<path fill="#FF33FF" d="M206.026,111.83c-1.556,0-2.821,1.266-2.821,2.821s1.266,2.821,2.821,2.821
			c1.552,0,2.814-1.266,2.814-2.821S207.578,111.83,206.026,111.83z"/>
		<path fill="#FF33FF" d="M187,100v28h37v-28H187z M206.026,121.471c-3.761,0-6.821-3.06-6.821-6.821s3.06-6.821,6.821-6.821
			c3.757,0,6.814,3.06,6.814,6.821S209.784,121.471,206.026,121.471z"/>
	</g>
</g>
<rect x="127.437" y="238.646" transform="matrix(0.4271 -0.9042 0.9042 0.4271 -136.0596 283.1827)" fill="#FF33FF" width="56.026" height="20.64"/>
<g>
	
		<rect x="84.062" y="346.349" transform="matrix(-0.9042 -0.4271 0.4271 -0.9042 54.4038 716.5167)" fill="#FF33FF" width="47.001" height="11.615"/>
	<g>
		<polygon fill="#FF33FF" points="63.234,345.136 121.626,372.72 123.667,368.399 81.17,348.324 87.84,334.207 130.337,354.28 
			137.123,339.916 119.346,332.511 118.491,334.319 107.921,329.325 116.145,311.917 108.772,308.435 54.774,330.891 
			39.672,362.859 41.543,368.08 108.809,399.855 119.918,376.338 63.022,349.46 57.797,351.328 48.475,371.064 44.857,369.355 
			54.889,348.121 		"/>
		
			<rect x="86.062" y="348.35" transform="matrix(-0.9042 -0.4271 0.4271 -0.9042 54.4054 716.5168)" fill="#FF33FF" width="43" height="7.614"/>
	</g>
</g>
<g>
	
		<rect x="219.959" y="327.372" transform="matrix(1 -0.0016 0.0016 1 -0.5197 0.3609)" fill="#FF33FF" width="21.238" height="10.419"/>
	<polygon fill="#FF33FF" points="230.566,325.372 221.949,325.385 221.852,263.972 228.953,263.961 228.979,280.655 
		239.115,280.639 239.186,325.358 	"/>
</g>
<rect x="215.237" y="238.298" transform="matrix(-0.0016 -1 1 -0.0016 -4.9868 492.2574)" fill="#FF33FF" width="56.025" height="20.64"/>
<g>
	<rect x="219.153" y="356.57" transform="matrix(1 -0.0016 0.0016 1 -0.5719 0.3836)" fill="#FF33FF" width="47" height="11.615"/>
	<g>
		<polygon fill="#FF33FF" points="285.753,374.896 221.173,374.997 221.166,370.22 268.166,370.146 268.141,354.531 
			221.141,354.604 221.115,338.718 240.354,339.585 240.357,341.585 252.047,341.565 252.018,322.312 260.172,322.301 
			299.473,365.607 299.528,400.963 295.613,404.891 221.221,405.008 221.18,378.999 284.104,378.898 288.037,382.813 
			288.07,404.641 292.071,404.634 292.033,381.149 		"/>
		
			<rect x="221.153" y="358.571" transform="matrix(1 -0.0016 0.0016 1 -0.5676 0.3807)" fill="#FF33FF" width="42.999" height="7.614"/>
	</g>
</g>
<rect x="251" y="32" fill="#FF33FF" width="85" height="57"/>
<polygon fill="#FF33FF" points="263,85 245,113.273 289.528,85 "/>
<g>
	<path fill="#FFFFFF" d="M296.633,81h-11.699V67.14h-13.44V81h-11.819V39.36h11.819v16.08h13.44V39.36h11.699V81z"/>
	<path fill="#FFFFFF" d="M314.633,81h-11.7V39.42h11.7V81z"/>
	<path fill="#FFFFFF" d="M327.832,54.3v16.86h-6.72V54.3H327.832z M327.832,74.4v6.72h-6.72V74.4H327.832z"/>
</g>
</svg>
